<svg xmlns="http://www.w3.org/2000/svg" width="64" height="64" viewBox="0 0 64 64">
  <g>
    <polygon points="18.95 63.5 0.5 45.05 0.5 18.95 18.95 0.5 45.05 0.5 63.5 18.95 63.5 45.05 45.05 63.5 18.95 63.5" fill="red"/>
    <path d="M44.84,1,63,19.16V44.84L44.84,63H19.16L1,44.84V19.16L19.16,1H44.84m.41-1H18.75L0,18.75v26.5L18.75,64h26.5L64,45.25V18.75L45.25,0Z"/>
  </g>
  <g>
    <path d="M5.51,35.46a9.39,9.39,0,0,0,4.06,1c1.68,0,2.57-.7,2.57-1.76s-.77-1.58-2.72-2.28C6.73,31.49,5,30,5,27.65c0-2.76,2.31-4.87,6.12-4.87a10,10,0,0,1,4.14.81l-.82,3A7.59,7.59,0,0,0,11,25.78c-1.58,0-2.35.72-2.35,1.56,0,1,.91,1.49,3,2.28,2.86,1.06,4.2,2.55,4.2,4.83,0,2.71-2.09,5-6.53,5a10.54,10.54,0,0,1-4.59-1Z" fill="#fff"/>
    <path d="M21.48,26.11H17.13V23H29.57v3.07H25.15V39.23H21.48Z" fill="#fff"/>
    <path d="M45.64,31c0,5.3-3.22,8.52-8,8.52s-7.61-3.62-7.61-8.24c0-4.85,3.09-8.47,7.88-8.47C42.93,22.78,45.64,26.5,45.64,31Zm-11.7.21c0,3.17,1.49,5.41,3.94,5.41s3.89-2.36,3.89-5.5c0-2.91-1.39-5.41-3.91-5.41S33.94,28,33.94,31.18Z" fill="#fff"/>
    <path d="M48,23.26a29.1,29.1,0,0,1,5-.34,7.73,7.73,0,0,1,4.95,1.3A4.73,4.73,0,0,1,59.67,28a5.2,5.2,0,0,1-1.49,3.85,7.54,7.54,0,0,1-5.26,1.7,8.9,8.9,0,0,1-1.25-.07v5.79H48Zm3.63,7.35a5.78,5.78,0,0,0,1.22.09c2,0,3.15-1,3.15-2.64,0-1.49-1-2.38-2.86-2.38a5.74,5.74,0,0,0-1.51.15Z" fill="#fff"/>
  </g>
</svg>
